# AST/ASF file generated using VICON BodyLanguage
# -----------------------------------------------
:version 1.10
:name VICON
:units
  mass 1.0
  length 0.45
  angle deg
:documentation
   .ast/.asf automatically generated from VICON data using
   VICON BodyBuilder and BodyLanguage model FoxedUp or BRILLIANT.MOD
:root
   order TX TY TZ RX RY RZ
   axis XYZ
   position 0 0 0  
   orientation 0 0 0 
:bonedata
  begin
     id 1 
     name lhipjoint
     direction 0.662698 -0.695252 0.27831 
     length 2.53073 
     axis 0 0 0  XYZ
  end
  begin
     id 2 
     name lfemur
     direction 0.34202 -0.939693 0  
     length 7.16147  
     axis 0 0 20  XYZ
    dof rx ry rz
    limits (-160.0 20.0)
           (-70.0 70.0)
           (-60.0 70.0)
  end
  begin
     id 3 
     name ltibia
     direction 0.34202 -0.939693 0   
     length 7.63967   
     axis 0 0 20   XYZ
    dof rx
    limits (-10.0 170.0)
  end
  begin
     id 4 
     name lfoot
     direction 0.0938457 -0.257721 0.961651   
     length 1.89793   
     axis -90 7.62852e-016 20   XYZ
    dof rx rz
    limits (-45.0 90.0)
           (-70.0 20.0)
  end
  begin
     id 5 
     name ltoes
     direction -0.00116841 -0.0030592 0.999995   
     length 0.955649   
     axis -90 7.62852e-016 20   XYZ
    dof rx
    limits (-90.0 20.0)
  end
  begin
     id 6 
     name rhipjoint
     direction -0.649445 -0.705948 0.282592   
     length 2.49238  
     axis 0 0 0  XYZ 
  end
  begin
     id 7 
     name rfemur
     direction -0.34202 -0.939693 0   
     length 6.90728   
     axis 0 0 -20   XYZ
    dof rx ry rz
    limits (-160.0 20.0)
           (-70.0 70.0)
           (-70.0 60.0)
  end
  begin
     id 8 
     name rtibia
     direction -0.34202 -0.939693 0   
     length 7.72868   
     axis 0 0 -20   XYZ
    dof rx
    limits (-10.0 170.0)
 end
 begin
     id 9 
     name rfoot
     direction -0.0920068 -0.252865 0.963117   
     length 1.97476  
     axis -90 -7.62852e-016 -20   XYZ
    dof rx rz
    limits (-45.0 90.0)
           (-20.0 70.0)
  end
  begin
     id 10 
     name rtoes
     direction 0.000391322 0.00230649 0.999997   
     length 0.992641   
     axis -90 -7.62852e-016 -20   XYZ
    dof rx
    limits (-90.0 20.0)
  end
  begin
     id 11 
     name lowerback
     direction -0.00875327 0.998321 -0.0572635   
     length 2.20024   
     axis 0 0 0   XYZ
    dof rx ry rz
    limits (-20.0 45.0)
           (-30.0 30.0)
           (-30.0 30.0)
  end
  begin
     id 12 
     name upperback
     direction 0.00753931 0.999972 -0.000360425   
     length 2.20538   
     axis 0 0 0   XYZ
    dof rx ry rz
    limits (-20.0 45.0)
           (-30.0 30.0)
           (-30.0 30.0)
  end
  begin
     id 13 
     name thorax
     direction 0.0117767 0.999601 0.0256663   
     length 2.21508   
     axis 0 0 0   XYZ
    dof rx ry rz
    limits (-20.0 45.0)
           (-30.0 30.0)
           (-30.0 30.0)
  end
  begin
     id 14 
     name lowerneck
     direction 0.060228 0.994909 0.0807986   
     length 1.7607   
     axis 0 0 0   XYZ
    dof rx ry rz
    limits (-20.0 45.0)
           (-30.0 30.0)
           (-30.0 30.0)
  end
  begin
     id 15 
     name upperneck
     direction -0.0563647 0.959594 -0.275685   
     length 1.75612   
     axis 0 0 0   XYZ
    dof rx ry rz
    limits (-20.0 45.0)
           (-30.0 30.0)
           (-30.0 30.0)
  end
  begin
     id 16
     name head
     direction -0.0161544 0.99458 -0.102714  
     length 1.79288  
     axis 0 0 0   XYZ
    dof rx ry rz
    limits (-20.0 45.0)
           (-30.0 30.0)
           (-30.0 30.0)
  end
  begin
     id 17 
     name lclavicle
     direction 0.93913 0.332189 -0.087669  
     length 3.52087  
     axis 0 0 0   XYZ
    dof ry rz
    limits (-20.0 10.0)
           (0.0 20.0)
  end
  begin
     id 18 
     name lhumerus
     direction 1 -4.48974e-011 -2.70836e-027   
     length 5.35289   
     axis -180 -30 -90   XYZ
    dof rx ry rz
    limits (-60.0 90.0)
           (-90.0 90.0)
           (-90.0 90.0)
  end
  begin
     id 19
     name lradius
     direction 1 -4.48961e-011 -9.76021e-027   
     length 3.27727   
     axis -180 -30 -90   XYZ
    dof rx
    limits (-10.0 170.0)
  end
  begin
     id 20
     name lwrist
     direction 1 -4.49103e-011 -2.23668e-026   
     length 1.63864   
     axis 1.44924e-014 90 90   XYZ
    dof ry
    limits (-180.0 0.0)
 end
  begin
     id 21 
     name lhand
     direction 1 3.0697e-005 0.000161777   
     length 0.54443   
     axis 2.85318e-014 90 90   XYZ
    dof rx rz
    limits (-90.0 90.0)
           (-45.0 45.0)
  end
  begin
     id 22 
     name lfingers
     direction 1 -4.49027e-011 -8.9447e-026   
     length 0.438912   
     axis 5.70628e-014 90 90   XYZ
    dof rx
    limits (0.0 90.0)
  end
  begin
     id 23
     name lthumb
     direction 0.707058 2.6516e-005 0.707156   
     length 0.630274   
     axis -90 45 -3.53137e-014   XYZ
    dof rx rz
    limits (-45.0 45.0)
           (-45.0 45.0)
  end
  begin
     id 24 
     name rclavicle
     direction -0.95274 0.284984 -0.105215   
     length 3.43401  
     axis 0 0 0   XYZ 
    dof ry rz
    limits (-10.0 20.0)
           (-20.0 0.0)
  end
  begin
     id 25 
     name rhumerus
     direction -0.999999 -0.000575019 -0.00106829  
     length 5.52077   
     axis -180 30 90   XYZ
    dof rx ry rz
    limits (-90.0 60.0)
           (-90.0 90.0)
           (-90.0 90.0)
  end
  begin
     id 26 
     name rradius
     direction -1 -4.4879e-011 -6.35415e-027   
     length 3.32364   
     axis -180 30 90   XYZ
    dof rx
    limits (-10.0 170.0)
  end
  begin
     id 27 
     name rwrist
     direction -1 -4.49048e-011 -9.98542e-027   
     length 1.66182   
     axis 6.32482e-015 -90 -90   XYZ
    dof ry
    limits (-180.0 0.0)
  end
  begin
     id 28
     name rhand
     direction -1 -4.48978e-011 -1.99771e-026   
     length 0.732235   
     axis 1.27479e-014 -90 -90   XYZ
    dof rx rz
    limits (-90.0 90.0)
           (-45.0 45.0)
  end
  begin
     id 29
     name rfingers
     direction -1 -4.49144e-011 -3.99245e-026   
     length 0.590347   
     axis 2.5496e-014 -90 -90   XYZ
    dof rx
    limits (0.0 90.0)
  end
  begin
     id 30
     name rthumb
     direction -0.707107 -6.35121e-011 0.707107   
     length 0.847624   
     axis -90 -45 -2.82974e-014   XYZ
    dof rx rz
    limits (-45.0 45.0)
           (-45.0 45.0)
  end
:hierarchy
  begin
    root lhipjoint rhipjoint lowerback
    lhipjoint lfemur
    lfemur ltibia
    ltibia lfoot
    lfoot ltoes
    rhipjoint rfemur
    rfemur rtibia
    rtibia rfoot
    rfoot rtoes
    lowerback upperback
    upperback thorax
    thorax lowerneck lclavicle rclavicle
    lowerneck upperneck
    upperneck head
    lclavicle lhumerus
    lhumerus lradius
    lradius lwrist
    lwrist lhand lthumb
    lhand lfingers
    rclavicle rhumerus
    rhumerus rradius
    rradius rwrist
    rwrist rhand rthumb
    rhand rfingers
  end

#!OML:ASF G:\Work\Work\Patient Classification 1\Elijah\terrain1\Elijah.ASF
:FULLY-SPECIFIED
:DEGREES
2804
root -2.28622 20.4877 7.88561 359.462 69.3467 -373.802
lowerback 10.1715 1.90856 4.97454
upperback 2.43521 3.08976 -0.303398
thorax -2.87676 1.53153 -3.49185
lowerneck -16.9153 9.11226 10.717
upperneck 29.2388 14.7007 -12.1377
head 14.7345 6.2265 -3.97983
rclavicle -7.95139e-016 -1.66979e-014
rhumerus -32.9896 13.2951 -88.3154
rradius 49.4621
rwrist -7.94615
rhand -13.4959 22.6163
rfingers 7.12502
rthumb 12.6152 -6.98278
lclavicle -7.95139e-016 -1.66979e-014
lhumerus -34.8337 -3.95277 79.3113
lradius 36.9364
lwrist -2.29968
lhand -13.5203 24.7049
lfingers 7.12502
lthumb 12.5916 54.3054
rfemur -9.03194 -3.19133 28.0508
rtibia 24.4021
rfoot -5.97667 -16.246
rtoes -22.6408
lfemur -66.0184 3.55146 -17.8227
ltibia 76.3677
lfoot -20.49 -7.7268
ltoes 4.75094
2805
root -2.20003 20.5276 7.89704 360.055 69.4815 -373.284
lowerback 10.3183 1.93623 4.49498
upperback 2.48713 3.07967 -0.411942
thorax -2.92467 1.52904 -3.34031
lowerneck -17.1597 9.08896 10.5752
upperneck 29.1455 14.6715 -12.159
head 14.7317 6.18336 -3.96005
rclavicle -3.97569e-015 1.27222e-014
rhumerus -33.1454 13.4291 -88.2976
rradius 49.4287
rwrist -8.27286
rhand -13.9057 22.6367
rfingers 7.12502
rthumb 12.22 -6.98632
lclavicle -3.97569e-015 1.27222e-014
lhumerus -34.1449 -3.3042 79.1307
lradius 36.7974
lwrist -2.93875
lhand -14.1588 24.4836
lfingers 7.12502
lthumb 11.976 54.121
rfemur -8.97121 -3.36556 27.6518
rtibia 24.4544
rfoot -5.39354 -15.8906
rtoes -22.1669
lfemur -65.7508 2.88569 -17.739
ltibia 76.3
lfoot -20.3892 -7.82416
ltoes 6.09028
2806
root -2.10839 20.5591 7.90548 360.352 69.6635 -373.238
lowerback 10.2698 1.8814 4.07126
upperback 2.48326 2.96352 -0.318865
thorax -2.93968 1.47299 -2.99001
lowerneck -17.6091 9.07066 9.89308
upperneck 29.3708 14.7644 -11.8765
head 14.8525 6.15665 -3.6994
rclavicle 6.72886e-014 -1.05356e-014
rhumerus -33.3663 13.8459 -88.083
rradius 49.2948
rwrist -8.4409
rhand -14.0169 22.8023
rfingers 7.12502
rthumb 12.1128 -6.82706
lclavicle 6.72886e-014 -1.05356e-014
lhumerus -33.6632 -2.43553 79.1482
lradius 36.833
lwrist -3.22934
lhand -14.8008 24.5104
lfingers 7.12502
lthumb 11.3569 54.1828
rfemur -9.10103 -3.71014 27.4179
rtibia 24.541
rfoot -4.42578 -15.4888
rtoes -23.1034
lfemur -65.7254 2.93138 -17.9635
ltibia 76.1561
lfoot -20.3052 -7.91358
ltoes 5.03323
2807
root -2.01474 20.5889 7.92419 360.132 69.7975 -373.764
lowerback 10.1848 1.7956 3.65713
upperback 2.4313 2.8104 -0.117023
thorax -2.99013 1.39685 -2.52772
lowerneck -17.5628 9.07585 9.29764
upperneck 29.143 14.8993 -11.8038
head 14.6949 6.16373 -3.53711
rclavicle -2.09718e-014 4.77083e-015
rhumerus -33.707 14.5061 -87.8665
rradius 49.1726
rwrist -8.47837
rhand -14.4218 22.649
rfingers 7.12502
rthumb 11.7224 -7.00301
lclavicle -2.09718e-014 4.77083e-015
lhumerus -33.5794 -2.32091 79.1051
lradius 37.2804
lwrist -2.64938
lhand -15.1149 24.3349
lfingers 7.12502
lthumb 11.054 54.0238
rfemur -9.20822 -3.88645 27.4228
rtibia 24.5208
rfoot -3.30885 -15.1385
rtoes -23.3624
lfemur -65.5555 2.674 -17.8408
ltibia 75.8729
lfoot -20.6108 -7.07346
ltoes 1.68833
2808
root -1.92266 20.6297 7.94472 360.473 69.8713 -373.574
lowerback 10.2542 1.80824 3.10526
upperback 2.40045 2.7692 -0.184901
thorax -3.08674 1.37678 -2.28765
lowerneck -17.4811 9.07569 9.34868
upperneck 28.9201 14.8522 -11.8387
head 14.5783 6.15069 -3.56758
rclavicle -2.96189e-014 1.45113e-014
rhumerus -33.9922 14.8137 -87.8651
rradius 49.009
rwrist -8.67528
rhand -14.9836 22.4448
rfingers 7.12502
rthumb 11.1806 -7.23728
lclavicle -2.96189e-014 1.45113e-014
lhumerus -33.5133 -3.3513 78.7318
lradius 37.9355
lwrist -1.2687
lhand -15.2716 24.2462
lfingers 7.12502
lthumb 10.9027 53.9432
rfemur -9.14261 -3.74518 27.1813
rtibia 24.4236
rfoot -1.97743 -15.0087
rtoes -23.4517
lfemur -65.0525 2.48902 -18.0839
ltibia 75.3904
lfoot -21.1612 -5.69495
ltoes -4.36154
2809
root -1.8347 20.6931 7.96388 360.599 70.0073 -373.435
lowerback 10.5454 1.90515 2.81462
upperback 2.39536 2.86565 -0.466903
thorax -3.2465 1.42323 -2.44219
lowerneck -17.5386 9.069 9.91478
upperneck 29.0467 14.6332 -11.7351
head 14.6559 6.1226 -3.667
rclavicle 1.2424e-014 -1.51076e-014
rhumerus -34.2045 14.3853 -87.9911
rradius 48.6465
rwrist -8.87571
rhand -15.032 22.7024
rfingers 7.12502
rthumb 11.1339 -6.98224
lclavicle 1.2424e-014 -1.51076e-014
lhumerus -32.7138 -3.2575 78.467
lradius 37.7438
lwrist -1.41992
lhand -15.6201 23.9851
lfingers 7.12502
lthumb 10.5667 53.6994
rfemur -8.82978 -3.16168 27.0227
rtibia 24.1996
rfoot -0.37789 -15.5071
rtoes -23.9118
lfemur -64.2942 2.27859 -17.8501
ltibia 74.9565
lfoot -21.0157 -7.50402
ltoes 4.22322
